<svg width="107" height="38" viewBox="0 0 107 38" fill="none" xmlns="http://www.w3.org/2000/svg">
<path fill-rule="evenodd" clip-rule="evenodd" d="M89.5917 7.86496L62.0849 35.3722L60.6204 36.8367H58.5493H40.2114H28.1403L36.6759 28.3011L53.8134 11.1636H49.6176L23.5752 37.206L16.5041 30.1349L44.011 2.62802L45.4755 1.16356H47.5466H65.8845H77.9556L69.42 9.69909L52.2825 26.8367H56.4782L82.5206 0.793945L89.5917 7.86496ZM17.1376 11.1654H12V1.16539H29.2086H41.2797L32.7442 9.70093L7.07107 35.374L0 28.303L17.1376 11.1654ZM94.5 27.0599H89.1807L106.318 9.92236L99.2472 2.85129L73.5741 28.5244L65.0385 37.0599H77.1096H94.5V27.0599Z" fill="black"/>
</svg>
