<svg width="26" height="26" viewBox="0 0 26 26" fill="none" xmlns="http://www.w3.org/2000/svg">
<rect x="0.8" y="0.8" width="24.4" height="24.4" rx="12.2" fill="#FFC900"/>
<rect x="0.8" y="0.8" width="24.4" height="24.4" rx="12.2" stroke="white" stroke-width="0.4"/>
<path d="M6.12 16C6.09333 16 6.072 15.992 6.056 15.976C6.04533 15.9547 6.04533 15.9307 6.056 15.904L7.872 11.104C7.87733 11.0933 7.87733 11.0853 7.872 11.08C7.86667 11.0693 7.85867 11.064 7.848 11.064H5.92C5.89867 11.064 5.888 11.0747 5.888 11.096V11.472C5.888 11.5253 5.86133 11.552 5.808 11.552H5.328C5.27467 11.552 5.248 11.5253 5.248 11.472V10.48C5.248 10.4267 5.27467 10.4 5.328 10.4H8.616C8.66933 10.4 8.696 10.4267 8.696 10.48V11.016C8.696 11.0373 8.69067 11.0693 8.68 11.112L6.872 15.936C6.856 15.9787 6.82667 16 6.784 16H6.12ZM11.1076 16.08C10.5689 16.08 10.1396 15.928 9.81956 15.624C9.5049 15.3147 9.34756 14.9013 9.34756 14.384V12.016C9.34756 11.4987 9.5049 11.088 9.81956 10.784C10.1396 10.48 10.5689 10.328 11.1076 10.328C11.6462 10.328 12.0756 10.48 12.3956 10.784C12.7209 11.088 12.8836 11.4987 12.8836 12.016V14.384C12.8836 14.9013 12.7209 15.3147 12.3956 15.624C12.0756 15.928 11.6462 16.08 11.1076 16.08ZM11.1076 15.416C11.4169 15.416 11.6622 15.328 11.8436 15.152C12.0249 14.9707 12.1156 14.7307 12.1156 14.432V11.984C12.1156 11.6853 12.0249 11.448 11.8436 11.272C11.6622 11.0907 11.4169 11 11.1076 11C10.8089 11 10.5689 11.0907 10.3876 11.272C10.2062 11.448 10.1156 11.6853 10.1156 11.984V14.432C10.1156 14.7307 10.2062 14.9707 10.3876 15.152C10.5689 15.328 10.8089 15.416 11.1076 15.416ZM15.6388 16.08C15.1001 16.08 14.6708 15.928 14.3508 15.624C14.0361 15.3147 13.8788 14.9013 13.8788 14.384V12.016C13.8788 11.4987 14.0361 11.088 14.3508 10.784C14.6708 10.48 15.1001 10.328 15.6388 10.328C16.1775 10.328 16.6068 10.48 16.9268 10.784C17.2521 11.088 17.4148 11.4987 17.4148 12.016V14.384C17.4148 14.9013 17.2521 15.3147 16.9268 15.624C16.6068 15.928 16.1775 16.08 15.6388 16.08ZM15.6388 15.416C15.9481 15.416 16.1935 15.328 16.3748 15.152C16.5561 14.9707 16.6468 14.7307 16.6468 14.432V11.984C16.6468 11.6853 16.5561 11.448 16.3748 11.272C16.1935 11.0907 15.9481 11 15.6388 11C15.3401 11 15.1001 11.0907 14.9188 11.272C14.7375 11.448 14.6468 11.6853 14.6468 11.984V14.432C14.6468 14.7307 14.7375 14.9707 14.9188 15.152C15.1001 15.328 15.3401 15.416 15.6388 15.416ZM19.0341 16C19.0074 16 18.9861 15.992 18.9701 15.976C18.9594 15.9547 18.9594 15.9307 18.9701 15.904L20.7861 11.104C20.7914 11.0933 20.7914 11.0853 20.7861 11.08C20.7807 11.0693 20.7727 11.064 20.7621 11.064H18.8341C18.8127 11.064 18.8021 11.0747 18.8021 11.096V11.472C18.8021 11.5253 18.7754 11.552 18.7221 11.552H18.2421C18.1887 11.552 18.1621 11.5253 18.1621 11.472V10.48C18.1621 10.4267 18.1887 10.4 18.2421 10.4H21.5301C21.5834 10.4 21.6101 10.4267 21.6101 10.48V11.016C21.6101 11.0373 21.6047 11.0693 21.5941 11.112L19.7861 15.936C19.7701 15.9787 19.7407 16 19.6981 16H19.0341Z" fill="white"/>
</svg>
